<svg xmlns="http://www.w3.org/2000/svg" viewBox="0 0 5057.25 4738.18">
  <title>Asset 3</title>
  <g id="Layer_2" data-name="Layer 2">
    <g id="Layer_1-2" data-name="Layer 1">
      <g id="_6keyCW.tif" data-name="6keyCW.tif">
        <g>
          <path d="M3755,4738.18c-38-9.81-75.66-21.57-114.12-29.14-485.45-95.53-861.13-486.07-944.24-982.4-79-472,149.41-959.31,581.59-1212l347.39,601.65c-288.27,237.88-290.89,560.82-78.48,767.4,188.86,183.68,488.65,171.24,667.83-21.89,197.8-213.2,162.19-491.07-103.11-741.66l349.39-607.59c44.41,28.28,86.25,49.49,121.83,78.4,390.47,317.15,551.87,727,438.76,1216.58s-437.47,787.1-927.42,902.15c-33.59,7.89-66.43,19-99.62,28.56Z"/>
          <path d="M1063.86,4738.18c-67.74-17.91-136.43-32.85-203.06-54.22C408.43,4538.9,118.15,4236.51,26.65,3770.22c-93.74-477.72,60.84-882.45,447.23-1176.39,377.9-287.48,796.63-318.95,1230.38-122.91,19.89,9,38.09,21.71,73.44,42.16L1431.36,3115c-388.3-90.93-636.3,24.76-705.27,321.44-59.81,257.32,108.41,513.35,373.5,568.47,273.48,56.86,501.66-123.4,565.47-455h707.28C2356.09,3985.77,2176,4326.34,1807.91,4547c-151.75,91-335.21,129.05-504.24,191.19Z"/>
          <path d="M2272.72,1612.68,1927.5,2210.6c-439.86-213.27-682.94-773.11-568.32-1287C1478.26,389.64,1965.47.28,2514.84,0c544.54-.27,1025.61,379,1153.77,909.52,123.67,512-118.4,1079.66-565.23,1301.84L2762.45,1620c272.92-328.69,291.09-589.84,58.7-788.68C2629.38,667.25,2344.91,683.16,2172,867.62,1975.07,1077.8,2009.14,1358.18,2272.72,1612.68Z"/>
        </g>
      </g>
    </g>
  </g>
</svg>
