<svg xmlns="http://www.w3.org/2000/svg" viewBox="0 0 8058.23 4414.53">
  <title>opencl</title>
  <g>
    <path d="M3312.93,4414.53c-57.23-23.45-119.69-38.87-170.63-72-112.09-72.9-179.07-177.07-190.31-314.76-14.25-174.54,68.32-300.55,201.14-396.85,77.87-56.46,166.36-98.1,249-148.2,54.52-33.05,107.08-69.34,160.59-104.08,125.36-81.4,251.39-161.77,375.94-244.39,114.22-75.77,226.17-155,340.4-230.72,91.87-60.93,186.15-118.22,278.42-178.57,54.6-35.71,106.88-75,161.07-111.33,87.81-58.93,176.85-116,264.32-175.45,42.62-29,81.89-62.83,124.51-91.77,25.1-17,24.18-33.83,5.2-51.21-109.74-100.46-218-202.69-331.4-298.91-50.55-42.91-76.1-97.42-41.65-152.68,54.18-86.88,114.57-169.89,172.42-254.48q91.26-133.44,182.7-266.77c97.61-142.48,194.74-285.28,293.06-427.27,50.59-73.06,103.41-144.57,155-217Q5618.5,571.76,5693.83,465c35-49.44,82.86-68.73,134.54-42.59,88.07,44.55,173.52,94.42,259,144,68.88,39.94,138.42,79.43,203.57,125,94.61,66.16,188,134.57,277.38,207.56,105.63,86.26,211.14,173.65,308,269.36,95.73,94.6,182.05,199,269.6,301.51,39.31,46,24.22,111.77-25.81,144.76-91,60-180.16,122.84-272.68,180.34-121.69,75.64-246.68,145.93-368.76,221-134.53,82.69-267.12,168.51-401,252.26-106.26,66.47-214.4,130-319.48,198.26-107.44,69.79-208.52,150.13-319.39,213.62-73,41.8-125.93,103-187.62,155.16-118.66,100.33-230.78,208.38-346.21,312.56-93.07,84-187.72,166.24-280.26,250.81-44.18,40.37-83.9,85.61-127.76,126.36-57.79,53.68-118,104.74-176.56,157.61-76.1,68.72-151.56,138.15-227.34,207.23q-110.52,100.74-221.09,201.43c-83.57,76.49-163.15,158-251.71,228.12-51.72,41-117.6,64.09-177.11,95.23Z"/>
    <path d="M8058.23,3813.86c-36.77,64.09-96.2,81.3-164.83,80.19-36.69-.59-73.42-.88-110.1,0q-393.43,9.67-786.85,20.09-310.88,8.75-621.69,20c-155.55,5.63-311,14-466.55,19.4-67.82,2.35-100.2-23.28-112.75-91.11-24.9-134.6-44.4-270.22-70.92-404.48-12.45-63-35.2-124.09-54.72-185.58-20.59-64.86-41.06-129.87-65.08-193.5-17.62-46.7-37.84-93-62.34-136.38-35.2-62.34-24.19-134.37,39.59-170,132.67-74,268.09-143.13,402.46-214.12,80.3-42.42,162.39-81.77,240.7-127.59,92.75-54.27,187.55-103.79,284-151.24,127-62.52,249.8-133.72,374.68-200.68,68.18-36.56,136.94-72,205.42-108,75.18-39.52,149.88-80,225.65-118.32,49.66-25.13,103.93-9.05,133.2,41,70,119.82,142.64,238.45,205.43,362,58.69,115.5,110.07,235.18,157.15,355.95,38.66,99.17,64.74,203.16,99.22,304.06,37.41,109.47,60.37,222,78.32,335.83q31.28,198.34,62.47,396.7c.35,2.17,4.95,3.66,7.56,5.47Z"/>
    <path d="M5444.14,312.82c-23.3,46.89-39.71,85.88-61.08,121.93q-168,283.44-338.28,565.59c-74.72,124.18-150.86,247.51-225.58,371.69q-98,162.81-194.15,326.69c-59.72,101.21-94.65,114-202.45,62.75-179.49-85.38-362.16-161.43-555.32-210.75-54.52-13.92-109.87-33.11-118.38-100.14-4-31.5-.92-65.22,5.66-96.53,27.1-129,58.33-257.14,85-386.22,17.44-84.52,27.75-170.49,44.63-255.14,17.47-87.61,40-174.2,58.43-261.63,12.08-57.24,19-115.58,31.58-172.71,14.51-66.05,30.6-131.91,49.78-196.74,17.84-60.29,65.86-85.51,124.4-81.13,139.2,10.4,278.33,23,417,39.28,113.52,13.3,227.56,27.25,339,51.64,116.73,25.54,231,62.72,345.65,97.21,44.55,13.4,90,28.55,129.6,52C5406,256.27,5422.81,288,5444.14,312.82Z"/>
    <path d="M3439.66,1483.17c-92.07-4.9-158.1-11.52-224.1-11.19q-144.07.71-288.06,9.94c-87.28,5.69-111.06-44.45-124.11-115.28-21.58-117.15-37.05-235.42-54.65-353.29-12.55-84-23.21-168.36-36.88-252.2-10.7-65.63-28.23-130.28-36.41-196.14-10.93-88-19.87-176.68-20.43-265.13-.15-23.51,28.54-57,52.48-69,75.19-37.87,152.38-70.68,238.27-83.12,67.86-9.83,132.56-39.79,200.11-53.86,102-21.25,205-37.95,308-53.66,63.37-9.66,127.43-17.22,191.42-19.73,81.36-3.19,121.14,49.21,108.12,129.15-7.13,43.8-4.21,89.23-11.1,133.09-11.82,75.18-29,149.51-41.62,224.59-10.82,64.39-18.77,129.27-27.32,194-11.78,89.19-23,178.46-34.32,267.7-12,94.16-23.65,188.36-36,282.48-6.76,51.72-5.57,106.81-24,154.15C3551,1477.94,3484.26,1489.36,3439.66,1483.17Z"/>
    <path d="M2338.19,381c38,1,85.1,42.23,93.13,80.15,30.68,144.92,59,290.36,91.55,434.86,32.73,145.38,70.64,289.59,103.59,434.92,10.11,44.58,16.09,91.24,15.51,136.83-.82,63.48-58.9,81.23-102.9,98.67-122,48.39-247.05,89.23-371.2,132.16-74.07,25.61-127.57,2.07-164.06-72.17-75.22-153-149.23-306.68-224.52-459.69-43.85-89.11-88.93-177.61-134-266.12-25.67-50.41-24.28-93.25,19-126.65,75.21-58,153.94-111.76,233.77-163.31,93.55-60.41,188.08-119.78,285.69-173.2C2232.39,410.9,2288.81,398.57,2338.19,381Z"/>
    <path d="M918.63,1496.31c19.12-36.48,29.38-69.76,50.35-93.62q124.65-141.89,255.43-278.34c35.3-36.74,75.71-69.77,118-98.32,45.51-30.75,104.17-11.8,137.67,43.36,75.17,123.78,147.72,249.15,221.52,373.77,53.11,89.68,107.81,178.44,159.35,269,41.27,72.53,27.81,126.3-41.94,175.64-65.07,46-132.13,89.22-197.38,135-28.92,20.29-55.22,44.28-83.28,65.85-51.68,39.73-95.47,9.76-128.5-24.76-90.74-94.83-176-194.89-264.49-291.91-56.46-61.89-116.5-120.58-171.53-183.67C951.28,1562.53,937.74,1528.92,918.63,1496.31Z"/>
    <path d="M760.32,1712.81c29.83,15.19,53.82,23.06,72.37,37.78,36.18,28.71,69.74,60.81,103.64,92.31C1036.51,1936,1136.72,2029,1236,2123c22,20.87,41.42,44.91,59.78,69.18,46.28,61.19,48.62,79.6,4.4,139.44-62.88,85.08-125.07,171.39-195.76,249.77-82,90.92-83.82,82.33-182.47,30-87.74-46.57-170.05-103.44-254.18-156.69q-95.12-60.21-188.68-122.86c-52.08-34.8-68.42-74.63-41.1-132.47,41.43-87.71,89.23-172.58,137.5-256.84,32.71-57.1,68.22-113.08,107.73-165.62C702.65,1751,734,1734.08,760.32,1712.81Z"/>
    <path d="M688.56,3269.85c-72-20-144.36-38.69-215.84-60.37C394,3185.6,316.59,3157.16,237.64,3134,140.71,3105.6,103,3050.5,132.89,2957.65c42-130.54,89.57-259.34,137-388,19.56-53,89-68.07,144.15-38,123,67.15,246.82,132.68,370.27,198.94,27.31,14.66,55.36,28.22,81.49,44.77,54.32,34.42,68,94,40.71,156.23q-55.11,125.75-106.81,253C777.21,3239.68,740.74,3271.43,688.56,3269.85Z"/>
    <path d="M430.77,3958.64c-116.81-8.24-233.67-15.94-350.42-25-41.45-3.21-82.09-43.9-80.29-85.4,3.85-88.71,10.08-177.44,19.23-265.75,6.7-64.66,20.6-128.55,29.42-193,6.61-48.29,37.91-68.79,80.51-65,59.3,5.32,118.55,15.88,176.62,29.37,104.25,24.21,209,47.91,310.92,80,95.12,29.93,89.31,68,80.5,153.25-8.71,84.23-27.37,167.41-36.44,251.61-7.7,71.45-48.21,114.47-119.8,115.23-36.64.39-73.29.07-109.93.07Z"/>
  </g>
</svg>
