<svg xmlns="http://www.w3.org/2000/svg" viewBox="0 0 9351.2 5663.99">
  <title>pcl</title>
  <g>
    <path d="M4741.87,0c212.85,43.53,430.73,70.72,637.4,134.32,332.54,102.34,604.2,304.21,816.48,581.15C6234,765.42,6272,763.37,6327,754c730.24-123.82,1513.22,131.41,1936.7,757.68,221,326.84,301.22,688.85,228.93,1077.46-14.93,80.24,6,109,68.75,146.44,308.06,184,544.33,435.1,681.47,770.35,272.51,666.14,18.82,1409-622.89,1829.51-329.68,216-694.9,323.49-1086.4,324.15-1906.41,3.18-3812.87,9.21-5719.21-2.73-678-4.25-1242.62-275.53-1606.85-870.1C-178.6,4156.58-10.81,3347.48,585.75,2878.63c77.09-60.58,163.4-109.38,241.12-169.25,21.91-16.88,44.88-57.39,39.64-80.87-165.87-743.18,296.2-1434.77,957.92-1727.94,390.21-172.88,797-218.06,1218-144.47,32.4,5.66,84.27-10.28,103.94-34.77,352.41-438.83,814.55-660.9,1369.49-704.71,31.1-2.45,61.72-11,92.56-16.64Zm-1451,1217.1c-55-15.47-106.07-30.31-157.39-44.17-477-128.85-931-76.72-1349.86,190.11-457.33,291.36-729.49,841.89-459,1426.45,14.06,30.38,21.61,63.77,29,86.11-160.59,88.33-321.87,158.8-463.05,257.9-583.57,409.61-674,1140-201.74,1661.88C993.55,5132,1393.38,5273.26,1839.79,5274q2836.71,4.65,5673.44.36c389.79-.44,741.86-117.63,1043.17-372.58,380.77-322.18,513.05-825.76,324.23-1261.2-138.25-318.81-384.17-529.4-696.83-668.47-62.35-27.73-124.61-55.64-191.24-85.4,24.89-65.3,46-121.28,67.55-177.08,126.36-327.1,99.07-643.93-87.56-937.64-286.32-450.61-723.19-645.44-1238.22-660.11-223.49-6.36-448.77,49.78-686.37,79.16-282.64-528-752.22-790.73-1367.58-792C4061.14,397.81,3588.34,660.51,3290.9,1217.1Z"/>
    <path d="M4668.34,3814.26c-375-1-688.62-305-683.86-682.9,5.87-466.28,393.57-703.48,705-693,372.68,12.57,679,313.6,678.59,690.2C5367.68,3511.82,5058,3815.26,4668.34,3814.26Z"/>
  </g>
</svg>
