<svg xmlns="http://www.w3.org/2000/svg" viewBox="0 0 6282.33 6267.96">
  <title>ros</title>
  <g>
    <path d="M715.44,2436.88c402.22,1.61,704.82,312.44,698.7,717.7-5.85,387.09-323.24,699.56-706.31,695.36C328.8,3845.77,5,3524.16.21,3147-4.77,2756.83,319.06,2435.29,715.44,2436.88Z"/>
    <path d="M730.33,4849.41c391.58,6.93,687.69,314.2,683.94,709.72-3.77,397.78-328.72,713.43-721.55,700.92C311.77,6247.91-4.08,5921,0,5543.12,4.29,5152.69,331,4842.35,730.33,4849.41Z"/>
    <path d="M5585.65,6267.72c-395.27,3.76-718.68-315.31-717.53-707.9,1.11-382.83,316.66-700,700.09-703.76,397.85-3.86,715.39,310.94,714.12,707.95C6281.09,5953.34,5973.51,6264,5585.65,6267.72Z"/>
    <path d="M3160.3,2436.81c398.91,2.39,712.22,321.78,704,717.66-7.88,379.76-332.39,697.62-710.85,696.27-391.87-1.39-708.79-329.37-700.38-724.81C2461.44,2732.2,2767,2434.45,3160.3,2436.81Z"/>
    <path d="M3836.3,5560.64c.4,402.07-311.49,712-711.74,707.26-388.33-4.59-693.5-314.19-694.55-704.62-1.06-397.4,316.31-712.07,713.32-707.25C3531.78,4860.76,3835.92,5170,3836.3,5560.64Z"/>
    <path d="M1414.24,708.53c-1,392.91-302.43,696.66-694.39,699.69C323.45,1411.28-2,1092.64.11,703.59,2.25,315.3,333.24-5.75,724.68.76,1111.51,7.2,1415.21,318.92,1414.24,708.53Z"/>
    <path d="M3134.57,1408.38c-391-5.13-693.86-312.13-693.28-702.68.6-397.22,320.49-712.78,715.3-705.58,384.92,7,696.55,322.71,697,706.14C3854.13,1101.14,3534.11,1413.62,3134.57,1408.38Z"/>
    <path d="M6268.07,704.62c1.25,394.18-296.38,697.62-690.13,703.59-399.59,6.06-717.74-304.45-718-700.8-.29-385.78,308-700,693.5-706.9C5950.33-6.57,6266.8,305.23,6268.07,704.62Z"/>
    <path d="M6267.86,3133.59c-2.28,392-305.56,696.5-696.56,699.39-396.39,2.93-713.36-313.25-711.4-709.65,2-397.7,318.78-703.23,721.59-695.9C5976.07,2434.62,6270.16,2737.18,6267.86,3133.59Z"/>
  </g>
</svg>
