<svg xmlns="http://www.w3.org/2000/svg" viewBox="0 0 8460.99 4539.04">
  <title>Asset 1</title>
  <g id="Layer_2" data-name="Layer 2">
    <g id="Layer_1-2" data-name="Layer 1">
      <g id="Layer_2-2" data-name="Layer 2">
        <g id="Layer_1-2-2" data-name="Layer 1-2">
          <g id="iV7VwF.tif">
            <g>
              <path d="M7135.85,4539c-4.72-17.92-9.72-35.78-14.11-53.78q-82.31-337.79-164.45-675.62Q6870.06,3450.85,6783,3092q-63-259.27-126.16-518.51c-1.4-5.76-3.22-11.42-4.73-16.74-13-3-74.58-3.81-101.67-1.37-1.13,2.85-3,6-3.61,9.31q-16.67,93.77-33.06,187.59-18.83,107.08-37.67,214.15-17.15,97.33-34.37,194.66t-34.38,194.66q-17,96.45-34,192.91t-34,192.91c-3.12,17.7-6.18,35.4-9.41,53.08-1,5.22-2.39,10.36-3.53,15.24-2.74.68-4.44,1.48-6.15,1.48q-457.67.09-915.34,0c-1.7,0-3.41-.85-5-1.27-3.44-5.32-1.36-10.71-.48-15.8,8.51-49,17.24-97.93,25.9-146.88q17.21-97.32,34.4-194.65,19.08-107.94,38.14-215.89,18.86-107.07,37.62-214.16t37.87-214.11q18.88-107.07,37.64-214.15T5649,2380.35q16.88-95.56,33.69-191.13,17-96.46,33.86-192.93,18.89-107.06,37.93-214.1Q5773.32,1675.12,5792,1568c10.09-57.22,20.55-114.37,30.34-171.64,1.66-9.69,5.09-18.38,9.24-27Q5954,1114.22,6076.52,859q44.33-92.36,88.64-184.72c3.08-6.42,6.43-12.7,9.33-18.41,19.75-2.52,603.63-3.72,696.88-1.54,3.51.08,7,.69,11.86,1.2-21.19,124-43.47,247.08-64.93,370.26-21.59,123.92-43.87,247.72-65.65,371.61-21.65,123.13-43.64,246.21-64.93,369.36,15,2.87,75.33,3.55,106.45,1.5,5.44-4,8.67-10.59,12.61-16.48q99-147.88,198-295.85,263.92-394.5,527.86-789c3.31-4.94,6.86-9.72,10.38-14.71h917.42c2.21,6.78-2.82,10.43-5.57,14.57Q8413.6,729,8372,790.88L7570.17,1989.32c-28.66,42.84-57.08,85.83-86.18,128.37-6.34,9.27-7.55,17.65-4.93,28.45q96.16,396.37,191.76,792.87,106.86,442.77,213.58,885.57,83.69,346.7,167.6,693.34c1.69,7,3.08,14.08,4.62,21.12Z"/>
              <path d="M1161.73,0c5.91,23.18,12,46.31,17.69,69.55q71.19,292.39,142.23,584.82,74.53,306.37,149.13,612.72,72.82,299.39,145.56,598.81,73,300.26,146.13,600.51,16.14,66.33,32.36,132.65c.94,3.84,2.73,7.48,5.12,13.85,33.05-67.41,63.95-132.88,95.37-198.08q46.81-97.13,93.35-194.4,47-98,94-196.07t94.06-196.05l94.08-196,93.3-194.42q47.06-98,94.14-196t94.11-196l93.29-194.43c31.34-65.29,62.69-130.57,93.14-194a35.56,35.56,0,0,1,3.43-2.31,4.66,4.66,0,0,1,1.75-.37q449.53-.21,899.07-.37,6.28,0,12.58.26a19.12,19.12,0,0,1,3.85,1.07c.72,7-3.72,12.37-6.46,18.1q-58.53,122.41-117.36,244.67l-1248,2600.38q-64.54,134.47-129.11,268.93c-2.84,5.91-5.83,11.75-9.07,18.25-4.14.51-8.16,1.22-12.21,1.46s-8.39.07-12.58.07H1191.42c-7.72,0-15.44-.23-24-.37-1.94-6.43-3.9-12-5.28-17.64Q1048.2,3320.75,934.3,2852q-122-501.9-244.22-1003.77-94.54-388.4-189.2-776.78Q392.18,624.55,283.66,177.6q-18.88-77.69-38-155.31c-1.14-4.65-2.64-9.29-3.09-14-.26-2.67,1.28-5.51,2-8.27Z"/>
              <path d="M133.08,0c2.18,5.52,5,10.86,6.43,16.57Q195.71,247,251.64,477.44q71.1,292.42,142.24,584.83Q461.2,1339,528.53,1615.66q70.9,291.54,141.72,583.1Q741.58,2492,813,2785.32q76.48,314.22,153,628.44,45.47,186.79,90.79,373.61c1.5,6.19,4.94,12.36,2.77,19.14-14,2.28-118,2.46-135.3.14-1.18-3.49-2.78-7.3-3.75-11.26q-32.4-132.66-64.65-265.39-76.48-314.22-153-628.45-70.86-291.49-141.77-583-74.51-306.38-149-612.76Q341,1413.34,269.79,1120.93,202.22,843.38,134.66,565.82,68,291.74,1.38,17.64C0,12,.42,5.89,0,0Z"/>
              <path d="M6855.31,4539q-19.85-81.14-39.68-162.28-76.24-313.31-152.43-626.63-59.22-243.5-118.59-487a66.8,66.8,0,0,1-.77-28.36q21.12-118.5,41.88-237.07c6.23-35.39,12.36-70.79,18.68-106.17.72-4,2.37-7.87,4.3-14.11,2.16,6.76,3.89,11.16,5,15.71q50.75,213.2,101.4,426.43,58.41,245.54,116.88,491.07l124,520.78q23.7,99.61,47.35,199.24c.68,2.87,2.06,5.58,3.12,8.36Z"/>
              <path d="M4488.47,3805.24c-3,.94-4.69,1.91-6.37,1.91q-406.37.2-812.73.21c-2.31,0-4.61-.83-6.67-1.23-2.94-5.75-1-11.08-.13-16.26q35.62-202.62,71.41-405.21,28-158.35,56.13-316.68,35.08-199.07,69.91-398.18,35.09-199.06,70.48-398.07,34.24-193.74,68.34-387.51t68.32-387.51q8.73-49.55,17.36-99.11c.4-2.32.35-4.72.57-7.91a102.13,102.13,0,0,0-10.47-1.58c-5.38-.26-10.78-.09-16.18-.09H3456.11c-2.64-6.67,1.3-11,3.47-15.52q41.47-86.74,83.12-173.39,125.57-261.64,251.16-523.28c3.11-6.47,6.27-12.92,9.74-20.07,4-.48,8-1.19,12.06-1.39,4.78-.25,9.59-.06,14.38-.06H6029.1c2.62,6.73-1.48,11-3.62,15.49q-43.73,91.63-87.72,183.14-124,258.41-248.08,516.79c-2.82,5.87-5.8,11.67-9.1,18.3H4915.36c-8.07,37.5-13.49,74.1-20.1,110.47-6.65,36.53-12.75,73.16-19.22,109.73s-13.16,73.09-19.62,109.65-12.71,73.17-19.13,109.75-12.92,73.13-19.39,109.7q-9.87,55.73-19.73,111.46c-6.42,36.57-12.67,73.18-19.13,109.74s-13.18,73.09-19.64,109.65-12.74,73.17-19.15,109.74-12.86,73.14-19.34,109.71-13.08,73.1-19.51,109.67-12.65,73.18-19.1,109.75-13.08,73.1-19.56,109.67-12.88,73.14-19.28,109.72-12.69,73.17-19.16,109.74-13.19,73.08-19.64,109.65c-6.56,37.16-12.85,74.36-19.39,111.53q-9.65,54.86-19.53,109.67t-19.33,109.71c-6.4,36.58-12.67,73.18-19.13,109.74s-13.16,73.09-19.65,109.65S4494.79,3769.17,4488.47,3805.24Z"/>
              <path d="M3937.58,1501a37.08,37.08,0,0,1,0,5.85q-202,1145.6-404.1,2291.17a72.6,72.6,0,0,1-2.48,8.34c-15.22,2.58-111.43,2.53-125.57,0-.56-13.42,15.88-110,38.14-229.77,14.34-77.12,27.54-154.46,41.16-231.72q20.27-115,40.36-230t40.51-230q20.4-115.87,41.08-231.74,20.31-115,40.4-230t40.4-230q20.29-115,40.77-230,20.49-115.88,40.88-231.77,20.25-114.91,40.52-230.14c15-3.43,29.34-1.41,43.56-1.75q20.66-.5,41.35,0C3908.79,1499.77,3923.15,1497.79,3937.58,1501Z"/>
              <path d="M5269.15,3806.86c-21.85,2.36-112.39,1.84-125.4-.56-2.73-5.82-.6-11.74.41-17.46q25.88-146.87,52-293.7,22.48-127.4,44.69-254.85,22.46-127.4,45.17-254.77,20.61-116.79,41-233.61,18.86-107.06,37.91-214.08,18.88-107.06,37.6-214.14,18.88-107.05,37.9-214.08t37.6-214.14q18.52-105.3,37.1-210.58,15.46-87.59,31-175.16c.51-2.85,1.31-5.64,1.93-8.27,2.5-.82,4.15-1.84,5.81-1.84q56.64-.19,113.28-.14c2.31,0,4.61.64,7.73,1.1,0,3.88.5,7.36-.08,10.65q-18.53,105.29-37.26,210.55-18.9,107.05-37.64,214.13-18.69,106.18-37.44,212.35-17.17,97.32-34.35,194.64-18.71,106.17-37.36,212.36-19.17,108.83-38.4,217.65-20.27,115-40.5,230-21.2,120.33-42.45,240.65-24.42,138-48.93,276-24,136.25-47.89,272.53C5271.76,3796.77,5270.44,3801.35,5269.15,3806.86Z"/>
              <path d="M2478.92,655h119.85c2.36,6.68-1.95,11-4.15,15.58q-39.44,82.72-79.22,165.29l-653,1360.88c-2.33,4.86-4.84,9.64-7,14.57-3,6.76-8.12,8.15-15.95,6.06-1.36-3.67-3.44-7.93-4.54-12.43-10-40.71-19.29-81.6-29.92-122.14-3.14-12-1.46-21.68,3.79-32.47,32.51-66.78,64.49-133.82,96.62-200.78q281-585.67,562.07-1171.33C2471.05,670.68,2474.84,663.22,2478.92,655Z"/>
              <path d="M7250.72,651.78c51,0,101.29,0,151.58.06,1.57,0,3.14.92,5.33,1.61-.81,6.7-5.18,11-8.37,15.81q-62.86,94.19-125.89,188.26L6877.56,1449.1c-3.33,5-6.48,10.12-10.34,14.67-1.52,1.79-4.73,2.15-7.29,3.22-2.86-7.07-.83-13,.19-18.73,16.14-91.4,32.56-182.76,48.39-274.22a74.14,74.14,0,0,1,11.78-29.58q116.13-173.17,232-346.53l90-134.45C7244.53,660,7247.11,656.72,7250.72,651.78Z"/>
            </g>
          </g>
        </g>
      </g>
    </g>
  </g>
</svg>
