<svg xmlns="http://www.w3.org/2000/svg" viewBox="0 0 11682.08 4539.03">
  <title>Asset 1</title>
  <g id="Layer_2" data-name="Layer 2">
    <g id="Layer_1-2" data-name="Layer 1">
      <g id="iV7VwF.tif">
        <g>
          <path d="M7135.85,4539c-4.72-17.92-9.72-35.78-14.11-53.78q-82.31-337.79-164.45-675.62Q6870.06,3450.85,6783,3092q-63-259.27-126.16-518.51c-1.4-5.76-3.22-11.42-4.73-16.74-13-3-74.58-3.81-101.67-1.37-1.13,2.85-3,6-3.61,9.31q-16.67,93.77-33.06,187.59-18.83,107.08-37.67,214.15-17.15,97.33-34.37,194.66t-34.38,194.66q-17,96.45-33.95,192.91t-33.95,192.91c-3.12,17.7-6.18,35.4-9.41,53.08-1,5.22-2.39,10.36-3.53,15.24-2.74.68-4.44,1.48-6.15,1.48q-457.67.09-915.34,0c-1.7,0-3.41-.85-5-1.27-3.44-5.32-1.36-10.71-.48-15.8,8.51-49,17.24-97.93,25.9-146.88q17.21-97.32,34.4-194.65,19.08-107.94,38.14-215.89,18.86-107.07,37.62-214.16t37.87-214.11q18.88-107.07,37.64-214.15t37.86-214.11q16.88-95.56,33.69-191.13,17-96.46,33.86-192.93,18.89-107.06,37.93-214.1,18.87-107.07,37.57-214.17c10.09-57.22,20.55-114.37,30.34-171.64,1.66-9.69,5.09-18.38,9.24-27Q5954,1114.22,6076.52,859q44.33-92.36,88.64-184.72c3.08-6.42,6.43-12.7,9.33-18.41,19.75-2.52,603.63-3.72,696.88-1.54,3.51.08,7,.69,11.86,1.2-21.19,124-43.47,247.08-64.93,370.26-21.59,123.92-43.87,247.72-65.65,371.61-21.65,123.13-43.64,246.21-64.93,369.36,15,2.87,75.33,3.55,106.45,1.5,5.44-4,8.67-10.59,12.61-16.48q99.05-147.88,198-295.85,263.92-394.5,527.86-789c3.31-4.94,6.86-9.72,10.38-14.71h917.42c2.21,6.78-2.82,10.43-5.57,14.57Q8413.6,729,8372,790.88L7570.17,1989.32c-28.66,42.84-57.08,85.83-86.18,128.37-6.34,9.27-7.55,17.65-4.93,28.45q96.16,396.37,191.76,792.87,106.86,442.77,213.58,885.57,83.69,346.7,167.6,693.34c1.69,7,3.08,14.08,4.62,21.12Z"/>
          <path d="M1161.73,0c5.91,23.18,12,46.31,17.69,69.55q71.19,292.39,142.23,584.82,74.53,306.37,149.13,612.72,72.82,299.39,145.56,598.81,73,300.26,146.13,600.51,16.14,66.33,32.36,132.65c.94,3.84,2.73,7.48,5.12,13.85,33.05-67.41,63.95-132.88,95.37-198.08q46.81-97.13,93.35-194.4,47-98,94-196.07t94.06-196.05l94.08-196q46.65-97.21,93.3-194.42,47.06-98,94.14-196t94.11-196q46.65-97.21,93.29-194.43c31.34-65.29,62.69-130.57,93.14-194a35.57,35.57,0,0,1,3.43-2.31,4.66,4.66,0,0,1,1.75-.37q449.53-.21,899.07-.37c4.19,0,8.39.08,12.58.26a19.12,19.12,0,0,1,3.85,1.07c.72,7-3.72,12.37-6.46,18.1q-58.53,122.41-117.36,244.67l-1248,2600.38q-64.54,134.47-129.11,268.93c-2.84,5.91-5.83,11.75-9.07,18.25-4.14.51-8.16,1.22-12.21,1.46s-8.39.07-12.58.07q-466.63,0-933.26,0c-7.72,0-15.44-.23-24-.37-1.94-6.43-3.9-12-5.28-17.64Q1048.2,3320.75,934.3,2852q-122-501.9-244.22-1003.77-94.54-388.4-189.2-776.78Q392.18,624.55,283.66,177.6q-18.88-77.69-38-155.31c-1.14-4.65-2.64-9.29-3.09-14-.26-2.67,1.28-5.51,2-8.27Z"/>
          <path d="M11682.08,1733.61c-.92,2.14-2.54,4.23-2.66,6.42-1.74,29.41-8.49,58.06-13.34,87-11.18,66.75-23,133.4-34.51,200.09q-16.84,97.38-33.65,194.77-17.3,100-34.64,200.07-17,98.26-34,196.53-17.15,99.15-34.28,198.3-17,98.27-34,196.53-17.15,99.15-34.3,198.3-17,98.27-34,196.54-17.15,99.15-34.33,198.3-16.52,95.61-33,191.23a51.4,51.4,0,0,1-2.18,7.22,20.1,20.1,0,0,1-2.38,2.13,3.77,3.77,0,0,1-1.72.49q-403.67.28-807.35.51c-3.59,0-7.19-.13-10.77-.4-1.13-.08-2.21-.8-4.57-1.72,1.52-23.38,7.34-46.49,11-69.89,3.69-23.67,8.31-47.19,12.39-70.8s7.91-47.26,12-70.87,8.38-47.18,12.49-70.78,8.06-47.23,12.13-70.85q6.25-36.3,12.58-72.59c4.1-23.6,8.25-47.2,12.31-70.81s8-47.25,12.06-70.86,8.44-47.17,12.52-70.77,8-47.25,12-70.87,8.13-47,12.38-71.64c-6.54.87-7.35,5.44-9.21,8.52q-56.31,93-112.43,186.19-128.17,212.39-256.36,424.76c-3.37,5.58-6.93,11-10.57,16.83-49.67.45-98.7.26-148.74.11-59.63-205.9-118.23-411.09-179-615.94-7.14,20.8-9.61,42.13-13.43,63.19-3.84,21.22-7.57,42.45-11.35,63.68s-7.6,42.45-11.38,63.67-7.53,42.46-11.27,63.7-7.47,42.47-11.18,63.71-7.41,42.48-11.14,63.72q-5.43,31-10.88,61.94-5.58,31.86-11.14,63.72T9811,3616.7q-5.61,31.85-11.26,63.7c-3.77,21.23-7.44,42.48-11.41,63.67-3.93,21-6.5,42.34-12.12,64H8950.61c-.16-4.11-.76-6.94-.29-9.57q20.05-114.15,40.29-228.26,22.42-127.42,44.7-254.86,20.58-116.79,41.39-233.54,18.89-107.06,37.59-214.15,18.87-107.06,37.91-214.09,16.59-93.78,33.06-187.57c.61-3.46.37-7.07.52-10.56-6.55-3.93-13.3-2.24-19.7-2.25-55.74-.15-111.49-.09-167.23-.09H8576.27c-6.49,0-13-.11-19.49-.17,0-3-.6-5.08.09-6.5,115.94-242,232-483.89,347-723.74a36.59,36.59,0,0,1,3.55-2.54,4.5,4.5,0,0,1,1.75-.38q602.39-.2,1204.77-.37c3.59,0,7.19,0,10.78.2a14.66,14.66,0,0,1,3.47.78,23.58,23.58,0,0,1,2.92,1.6c55,211.35,109.34,424,164.43,635.94a40.46,40.46,0,0,0,4.05-.35,6.44,6.44,0,0,0,1.62-.71,7.49,7.49,0,0,0,1.42-1.09c.85-.84,1.65-1.73,2.47-2.61q.61-.66,1.2-1.34l3.54-4.07,541.59-622.79c.39-.45.79-.9,1.21-1.32s.87-.83,1.32-1.22.92-.77,1.39-1.14,1-.72,2.52-1.89h800.84c7.79,0,15.57-.09,23.36-.14Z"/>
          <path d="M133.08,0c2.18,5.52,5,10.86,6.43,16.57Q195.71,247,251.64,477.44q71.1,292.42,142.24,584.83Q461.2,1339,528.53,1615.66q70.9,291.54,141.72,583.1Q741.58,2492,813,2785.32q76.48,314.22,153,628.44,45.47,186.79,90.79,373.61c1.5,6.19,4.94,12.36,2.77,19.14-14,2.28-118,2.46-135.3.14-1.18-3.49-2.78-7.3-3.75-11.26Q888.11,3662.73,855.86,3530q-76.48-314.22-153-628.45Q632,2610.06,561.09,2318.51q-74.51-306.38-149-612.76-71.13-292.41-142.3-584.82Q202.22,843.38,134.66,565.82,68,291.74,1.38,17.64C0,12,.42,5.89,0,0Z"/>
          <path d="M6855.31,4539q-19.85-81.14-39.68-162.28-76.24-313.31-152.43-626.63-59.22-243.5-118.59-487a66.8,66.8,0,0,1-.77-28.36q21.12-118.5,41.88-237.07c6.23-35.39,12.36-70.79,18.68-106.17.72-4,2.37-7.87,4.3-14.11,2.16,6.76,3.89,11.16,5,15.71q50.75,213.2,101.4,426.43,58.41,245.54,116.88,491.07,62,260.39,124,520.78,23.7,99.61,47.35,199.24c.68,2.87,2.06,5.58,3.12,8.36Z"/>
          <path d="M4488.47,3805.24c-3,.94-4.69,1.91-6.37,1.91q-406.37.2-812.73.21c-2.31,0-4.61-.83-6.67-1.23-2.94-5.75-1-11.08-.13-16.26q35.62-202.62,71.41-405.21,28-158.35,56.13-316.68,35.08-199.07,69.91-398.18,35.09-199.06,70.48-398.07,34.24-193.74,68.34-387.51t68.32-387.51q8.73-49.55,17.36-99.11c.4-2.32.35-4.72.57-7.91a102.13,102.13,0,0,0-10.47-1.58c-5.38-.26-10.78-.09-16.18-.09H3456.11c-2.64-6.67,1.3-11,3.47-15.52q41.47-86.74,83.12-173.39,125.57-261.64,251.16-523.28c3.11-6.47,6.27-12.92,9.74-20.07,4-.48,8-1.19,12.06-1.39,4.78-.25,9.59-.06,14.38-.06H6029.1c2.62,6.73-1.48,11-3.62,15.49q-43.73,91.63-87.72,183.14-124,258.41-248.08,516.79c-2.82,5.87-5.8,11.67-9.1,18.3H4915.36c-8.07,37.5-13.49,74.1-20.1,110.47-6.65,36.53-12.75,73.16-19.22,109.73s-13.16,73.09-19.62,109.65-12.71,73.17-19.13,109.75-12.92,73.13-19.39,109.7q-9.87,55.73-19.73,111.46c-6.42,36.57-12.67,73.18-19.13,109.74s-13.18,73.09-19.64,109.65-12.74,73.17-19.15,109.74-12.86,73.14-19.34,109.71-13.08,73.1-19.51,109.67-12.65,73.18-19.1,109.75-13.08,73.1-19.56,109.67-12.88,73.14-19.28,109.72-12.69,73.17-19.16,109.74-13.19,73.08-19.64,109.65c-6.56,37.16-12.85,74.36-19.39,111.53-6.43,36.57-13,73.11-19.53,109.67s-12.93,73.13-19.33,109.71-12.67,73.18-19.13,109.74-13.16,73.09-19.65,109.65S4494.79,3769.17,4488.47,3805.24Z"/>
          <path d="M7887.41,1721.43h871.16c4.6,5.82.93,9.34-.7,12.77-16.45,34.62-33.11,69.15-49.69,103.7q-142.27,296.45-284.54,592.9c-2.83,5.9-5.82,11.73-9.2,18.52q-367.92,0-735.39,0c-2.9,0-5.79-.69-9.58-1.18-3.36-13.65-6.68-26.92-9.9-40.21q-31.5-130.07-63-260.14c-.85-3.49-1.43-7.06-2.55-10.47-1.67-5.1-.38-9.38,2.78-13.4,1.48-1.88,2.8-3.89,4.2-5.83q138.78-192.47,277.57-384.93C7881,1729.74,7883.61,1726.46,7887.41,1721.43Z"/>
          <path d="M3937.58,1501a37.07,37.07,0,0,1,0,5.85q-202,1145.6-404.1,2291.17a72.61,72.61,0,0,1-2.48,8.34c-15.22,2.58-111.43,2.53-125.57,0-.56-13.42,15.88-110,38.14-229.77,14.34-77.12,27.54-154.46,41.16-231.72q20.27-115,40.36-230t40.51-230Q3586,2769,3606.68,2653.13q20.31-115,40.4-230t40.4-230q20.29-115,40.77-230,20.49-115.88,40.88-231.77,20.25-114.91,40.52-230.14c15-3.43,29.34-1.41,43.56-1.75q20.66-.5,41.35,0C3908.79,1499.77,3923.15,1497.79,3937.58,1501Z"/>
          <path d="M5269.15,3806.86c-21.85,2.36-112.39,1.84-125.4-.56-2.73-5.82-.6-11.74.41-17.46q25.88-146.87,52-293.7,22.48-127.4,44.69-254.85,22.46-127.4,45.17-254.77,20.61-116.79,41-233.61,18.86-107.06,37.91-214.08,18.88-107.06,37.6-214.14,18.88-107.05,37.9-214.08t37.6-214.14q18.52-105.3,37.1-210.58,15.46-87.59,31-175.16c.51-2.85,1.31-5.64,1.93-8.27,2.5-.82,4.15-1.84,5.81-1.84q56.64-.19,113.28-.14c2.31,0,4.61.64,7.73,1.1,0,3.88.5,7.36-.08,10.65q-18.53,105.29-37.26,210.55-18.9,107.05-37.64,214.13-18.69,106.18-37.44,212.35-17.17,97.32-34.35,194.64-18.71,106.17-37.36,212.36-19.17,108.83-38.4,217.65-20.27,115-40.5,230-21.2,120.33-42.45,240.65-24.42,138-48.93,276-24,136.25-47.89,272.53C5271.76,3796.77,5270.44,3801.35,5269.15,3806.86Z"/>
          <path d="M2478.92,655h119.85c2.36,6.68-1.95,11-4.15,15.58q-39.44,82.72-79.22,165.29l-653,1360.88c-2.33,4.86-4.84,9.64-7,14.57-3,6.76-8.12,8.15-15.95,6.06-1.36-3.67-3.44-7.93-4.54-12.43-10-40.71-19.29-81.6-29.92-122.14-3.14-12-1.46-21.68,3.79-32.47,32.51-66.78,64.49-133.82,96.62-200.78q281-585.67,562.07-1171.33C2471.05,670.68,2474.84,663.22,2478.92,655Z"/>
          <path d="M9031.64,2564.71c.17,3.51.7,5.83.32,8Q8923.57,3189.13,8815,3806c-4.25.76-7.64,1.89-11,1.9q-53,.2-106,0c-3.44,0-6.87-.89-10-1.32-.54-2-1.28-3.17-1.1-4.23Q8795,3187.73,8903.34,2573.07c.41-2.31,1.56-4.48,2.59-7.35,13.53-2.7,27.26-.9,40.87-1.21,14.37-.32,28.76-.11,43.14-.06C9003.61,2564.5,9017.28,2564.62,9031.64,2564.71Z"/>
          <path d="M7250.72,651.78c51,0,101.29,0,151.58.06,1.57,0,3.14.92,5.33,1.61-.81,6.7-5.18,11-8.37,15.81q-62.86,94.19-125.89,188.26-197.9,295.79-395.81,591.58c-3.33,5-6.48,10.12-10.34,14.67-1.52,1.79-4.73,2.15-7.29,3.22-2.86-7.07-.83-13,.19-18.73,16.14-91.4,32.56-182.76,48.39-274.22a74.14,74.14,0,0,1,11.78-29.58q116.13-173.17,232-346.53,45-67.23,90-134.45C7244.53,660,7247.11,656.72,7250.72,651.78Z"/>
          <path d="M10346.53,2147c-6.84-13.92-31.88-108.3-48.15-180.79a14.29,14.29,0,0,1,.35-1.76,4.4,4.4,0,0,1,.76-1.6q107-117.57,214-235.13c2.42-2.66,4.46-5.66,6.55-8.35,61,0,120.62,0,181.18,0-.57,7.65-5.09,11.07-8.31,15q-48.46,59-97.13,117.83-115.46,140-230.92,279.94c-3.43,4.15-6.66,8.55-10.6,12.17C10352.41,2146,10349.08,2146.18,10346.53,2147Z"/>
        </g>
      </g>
    </g>
  </g>
</svg>
